<?xml version="1.0" encoding="utf-8"?>
<!-- Generator: Adobe Illustrator 17.0.0, SVG Export Plug-In . SVG Version: 6.00 Build 0)  -->
<!DOCTYPE svg PUBLIC "-//W3C//DTD SVG 1.1//EN" "http://www.w3.org/Graphics/SVG/1.1/DTD/svg11.dtd">
<svg version="1.1" id="图层_1" xmlns="http://www.w3.org/2000/svg" xmlns:xlink="http://www.w3.org/1999/xlink" x="0px" y="0px"
   width="48px" height="48px" viewBox="-9.48 -10 48 48" enable-background="new -9.48 -10 48 48" xml:space="preserve">
   <defs>
    <style>
      .cls-1 {
        fill: #fff;
        fill-rule: evenodd;
      }
    </style>
  </defs>
<path id="btn_autoplay" class="cls-1" d="M19.77,26.629c-8.54,3.756-18.04-0.471-19.58-9.474c-1.43-8.365,5.05-15.824,13.12-17
  c6.94-1.009,13.32,2.988,15.16,9.1C30.41,15.713,26.98,23.455,19.77,26.629z M27.55,10.314c-0.547-1.826-1.556-3.479-2.93-4.8
  c-2.896-2.755-6.914-3.998-10.86-3.357C6.48,3.257,0.72,8.933,2.03,16.345c1.41,7.936,8.9,11.724,16.58,8.476
  C25.16,22.045,29.3,16.128,27.55,10.314L27.55,10.314z M9.61,8.99l11.19,1.643l-9.25,8.347L9.61,8.99z"/>
</svg>