 <svg id="p" xmlns="http://www.w3.org/2000/svg" xmlns:xlink="http://www.w3.org/1999/xlink" width="33" height="33" viewBox="0 0 33 33">
  <defs>
    <style>
      .cls-1 {
        fill-opacity: 0.2;
        stroke: aqua;
        stroke-width: 1px;
        fill: url(#radial-gradient);
      }

      .cls-2 {
        fill: aqua;
        fill-rule: evenodd;
      }
    </style>
    <radialGradient id="radial-gradient" cx="16.5" cy="16.5" r="16" gradientUnits="userSpaceOnUse">
      <stop offset="0" stop-color="#042d31"/>
      <stop offset="1" stop-color="#17ecff"/>
    </radialGradient>
  </defs>
  <circle id="_120" data-name="120" class="cls-1" cx="16.5" cy="16.5" r="16"/>
  <path id="Contacts_Icon" data-name="Contacts Icon" class="cls-2" d="M3176,649h-6.4c0.23-.825,3.16-1.239,3.74-1.636,0.67-.4.45-2.649,0.45-2.649l-0.45-.4a4.63,4.63,0,0,0-.31-1.369c-0.36-.618-0.89-1.471-0.89-1.471a1.09,1.09,0,0,1,0-1.765,14.564,14.564,0,0,1-.36-2.649c0-2.472,1.92-3.531,4.51-3.531s4.05,1.236,4.05,3.531c0,1.1-.17,2.649-0.17,2.649a1.105,1.105,0,0,1,0,1.765,15.384,15.384,0,0,0-.9,1.471,7.2,7.2,0,0,0-.31,1.369l-0.44.4s-0.23,2.251.44,2.649c0.58,0.353,2.94.783,3.44,1.636C3182.38,649.038,3179.79,649,3176,649Z" transform="translate(-3159.5 -624.5)"/>
</svg>