<svg id="p_center" xmlns="http://www.w3.org/2000/svg" xmlns:xlink="http://www.w3.org/1999/xlink" width="49" height="48" viewBox="0 0 49 48">
  <defs>
    <style>
      .cls-1 {
        fill-opacity: 0.4;
        stroke: aqua;
        stroke-width: 2px;
        fill: url(#radial-gradient);
      }

      .cls-2 {
        font-size: 9.974px;
        text-anchor: middle;
        font-family: Roboto;
        font-weight: 700;
      }

      .cls-2, .cls-3 {
        fill: #fff;
      }

      .cls-3 {
        fill-rule: evenodd;
      }
    </style>
    <radialGradient id="radial-gradient" cx="25" cy="17" r="16" gradientUnits="userSpaceOnUse">
      <stop offset="0" stop-color="#042d31"/>
      <stop offset="1" stop-color="#17ecff"/>
    </radialGradient>
  </defs>
  <circle id="_120" data-name="120" class="cls-1" cx="25" cy="17" r="16"/>
  <text id="Nevrton" class="cls-2" transform="translate(24.826 46.638) scale(1.407 1.404)">Nevrton</text>
  <path id="Contacts_Icon" data-name="Contacts Icon" class="cls-3" d="M3253,596h-6.4c0.23-.825,3.16-1.239,3.74-1.636,0.67-.4.45-2.649,0.45-2.649l-0.45-.4a4.63,4.63,0,0,0-.31-1.369c-0.36-.618-0.89-1.471-0.89-1.471a1.09,1.09,0,0,1,0-1.765,14.548,14.548,0,0,1-.36-2.649c0-2.472,1.92-3.531,4.51-3.531s4.06,1.235,4.06,3.531c0,1.1-.18,2.649-0.18,2.649a1.105,1.105,0,0,1,0,1.765,15.384,15.384,0,0,0-.9,1.471,7.2,7.2,0,0,0-.31,1.369l-0.44.4s-0.23,2.251.44,2.649c0.58,0.353,2.94.783,3.44,1.636C3259.38,596.038,3256.79,596,3253,596Z" transform="translate(-3228 -571)"/>
</svg>