<svg id="p_red" xmlns="http://www.w3.org/2000/svg" width="33" height="33" viewBox="0 0 33 33">
  <defs>
    <style>
      .cls-1, .cls-2 {
        fill: red;
      }

      .cls-1 {
        fill-opacity: 0.2;
        stroke: red;
        stroke-width: 1px;
      }

      .cls-2 {
        fill-rule: evenodd;
      }
    </style>
  </defs>
  <circle id="_48_r" data-name="48 r" class="cls-1" cx="16.5" cy="16.5" r="16"/>
  <path id="Contacts_Icon_r" data-name="Contacts Icon r" class="cls-2" d="M3371.02,618.176c-3.91,0-6.64-.093-6.69-0.14,0.64-.371,3.23-0.883,3.82-1.3,0.69-.418.46-2.788,0.46-2.788l-0.46-.419a5.085,5.085,0,0,0-.31-1.44c-0.37-.651-0.92-1.55-0.92-1.55a1.184,1.184,0,0,1,0-1.858,16.08,16.08,0,0,1-.36-2.789c0-2.6,1.96-3.717,4.6-3.717s4.14,1.3,4.14,3.717c0,1.162-.18,2.789-0.18,2.789a1.184,1.184,0,0,1,0,1.858,15.16,15.16,0,0,0-.91,1.55,6.651,6.651,0,0,0-.32,1.44l-0.46.419s-0.22,2.37.46,2.788c0.59,0.372,3.14.883,3.77,1.255C3377.66,618.036,3374.89,618.176,3371.02,618.176Z" transform="translate(-3354.5 -593.5)"/>
</svg>