<svg xmlns="http://www.w3.org/2000/svg" width="91" height="39" viewBox="0 0 91 39">
  <defs>
    <style>
      .cls-1 {
        fill: #fff;
        fill-rule: evenodd;
      }
    </style>
  </defs>
  <path id="sparta" class="cls-1" d="M3929.23,402.02c0-3.79-.52-6.095-3.48-7.267l-2.92-1.172c-2.83-1.133-3.31-2.227-3.31-5.743a5.965,5.965,0,0,1,1.4-4.415,3.727,3.727,0,0,1,2.67-.938,3.628,3.628,0,0,1,2.84,1.094c0.92,1.016,1.2,2.188,1.2,4.1h1.6c0-2.306-.24-3.79-1.6-5.158a5.546,5.546,0,0,0-4-1.445,5.325,5.325,0,0,0-3.91,1.445,7.259,7.259,0,0,0-1.8,5.353c0,4.141.76,5.743,3.67,6.915l2.92,1.172c2.52,1.016,3.12,2.423,3.12,6.1,0,2.422-.2,3.79-1.28,4.845a3.834,3.834,0,0,1-2.92,1.016,3.966,3.966,0,0,1-2.87-1.016c-0.96-.938-1.24-2.149-1.24-4.532h-1.6c0,3.086.4,4.376,1.64,5.626a5.518,5.518,0,0,0,4.07,1.367,5.457,5.457,0,0,0,4.04-1.367C3928.71,406.748,3929.23,404.989,3929.23,402.02Zm15.62-13.2c0-6.759-2.96-7.5-5.75-7.5h-5.04v27.818h1.6V396.316h3.44C3942.65,396.316,3944.85,394.753,3944.85,388.815Zm-1.6,0c0,4.063-1.04,6.094-4.03,6.094h-3.56V382.72h3.56C3942.21,382.72,3943.25,384.751,3943.25,388.815Zm17.3,20.316-5.99-27.818h-1.44l-6.11,27.818h1.76l1.68-8.361h6.63l1.72,8.361h1.75Zm-3.75-9.768h-6.03l2.99-14.846Zm18.5,9.768-4.52-13.088c2.24-.665,3.6-2.618,3.6-7.228,0-6.759-2.96-7.5-5.75-7.5h-5.04v27.818h1.6V396.277h4.08l4.27,12.854h1.76Zm-2.52-20.316c0,4.063-1.04,6.094-4.03,6.094h-3.56V382.72h3.56C3971.74,382.72,3972.78,384.751,3972.78,388.815Zm16.51-6.095v-1.407h-11.11v1.407h4.75v26.411h1.6V382.72h4.76Zm14.58,26.411-5.99-27.818h-1.44l-6.11,27.818h1.75l1.68-8.361h6.63l1.72,8.361h1.76Zm-3.75-9.768h-6.04l3-14.846Zm3.72-22.835c0-1.313-.09-1.535-0.33-1.852a1.3,1.3,0,0,0-.47-0.363,1.084,1.084,0,0,0,.48-0.422,2.479,2.479,0,0,0,.24-1.452,2.163,2.163,0,0,0-.4-1.723,1.443,1.443,0,0,0-1.9.012,1.435,1.435,0,0,0-.38,1.113v0.6h0.46v-0.6a0.9,0.9,0,0,1,.87-1.078,0.838,0.838,0,0,1,.6.235,2.037,2.037,0,0,1,.3,1.441,1.977,1.977,0,0,1-.31,1.452,0.79,0.79,0,0,1-.59.223h-0.52v0.4h0.52a0.82,0.82,0,0,1,.63.257c0.27,0.27.34,0.492,0.34,1.758a2.341,2.341,0,0,1-.34,1.71,0.807,0.807,0,0,1-.63.258,0.947,0.947,0,0,1-.94-1.078v-0.6h-0.45v0.6a1.44,1.44,0,0,0,.41,1.113,1.47,1.47,0,0,0,1.96-.023C4003.74,378.144,4003.84,377.758,4003.84,376.528Zm4.89-1.9c0-2.847-.09-3.269-0.59-3.773a1.58,1.58,0,0,0-1.13-.4h-1.6V378.8h1.6a1.58,1.58,0,0,0,1.13-.4C4008.64,377.9,4008.73,377.477,4008.73,374.63Zm-0.48,0c0,2.718-.06,3.081-0.47,3.479a1.124,1.124,0,0,1-.8.27h-1.09v-7.5h1.09a1.124,1.124,0,0,1,.8.27C4008.19,371.548,4008.25,371.911,4008.25,374.63Z" transform="translate(-3917.72 -370.375)"/>
</svg>